/* XPM */
static char * image_name[] = {
"16 16 7 1",
" 	s cyan m white	c cyan",
".	s black m black c black",
"X	s gray m white	c gray",
"o	s gray m white	c gray",
"O	s lime green m black c lime green",
"+	s gray6 m black c gray6",
"@	s white m white	c white",
"                ",
"           .    ",
"     .    ..    ",
"    .X.  .o..   ",
"   .XX...o..... ",
"  ..X...oo...o..",
"...XX..oo.o.o...",
"..XXX.oo...o....",
"X.X...O.O+..XX+X",
"OOOOOOOO+oo@o+OO",
"OOOOOOO+oo@o+OOO",
"OOOOOO+oo@o+OOOO",
"OOOOO+ooooo+OOOO",
"OOOOO+ooo@oo+OOO",
"OOOOOO+ooo@oo+OO",
"OOOOOOO+ooo@oo+O"};
