#define idl_prj_run_width 16
#define idl_prj_run_height 16
static char idl_prj_run_bits[] = {
  0xaa, 0xaa, 0x44, 0x44, 0xaa, 0xaa, 0x71, 0x51, 0xaa, 0xaa, 0x24, 0x45, 
  0x2a, 0xaa, 0x31, 0x14, 0xaa, 0xa8, 0x24, 0x44, 0x2a, 0x82, 0x31, 0x51, 
  0xaa, 0xa8, 0x64, 0x44, 0x2a, 0xaa, 0x11, 0x11, };
