#define idl_go_width 16
#define idl_go_height 15
static char idl_go_bits[] = {
  0x00, 0x00, 0xfa, 0x57, 0x08, 0x0c, 0x0a, 0x54, 0xa8, 0x3e, 0x2a, 0x60, 
  0xa8, 0x2a, 0x2a, 0x20, 0x20, 0xa5, 0xfa, 0x20, 0x70, 0xa5, 0x2a, 0x20, 
  0x08, 0x20, 0xfa, 0x7f, 0x08, 0x00, };
