/* XPM */
static char * image_name[] = {
"16 15 7 1",
" 	s none	m none	c none",
".	s black m black c black",
"X	s yellow m white	c yellow",
"o	s gray m white	c gray",
"O	s gray m white	c gray",
"+	s blue m black c blue",
"@	s white m white	c white",
"     ....       ",
" .....XX.....   ",
".oOo.X..X.OoO.  ",
".Oo.      .Oo.  ",
".oO........oO.  ",
".OoOoOoOoOoOo.  ",
".oOoOo+++++++.  ",
".OoOoO+@@@@@++  ",
".oOoOo+@@@@@+@+ ",
".OoOoO+@+++@+++ ",
".oOoOo+@@@@@@@+ ",
".OoOoO+@+++++@+ ",
" .....+@@@@@@@+ ",
"      +++++++++ ",
"                "};
