#define idl_setbkpt_width 16
#define idl_setbkpt_height 15
static char idl_setbkpt_bits[] = {
  0x00, 0x00, 0xfa, 0x57, 0x08, 0x0c, 0x0a, 0x54, 0x48, 0x3d, 0x0a, 0x60, 
  0x9c, 0x2a, 0x3e, 0x20, 0xaa, 0xaa, 0x3e, 0x20, 0x9c, 0xaa, 0x02, 0x20, 
  0x08, 0x20, 0xfa, 0x7f, 0x08, 0x00, };
