#define idl_import_binary_width 16
#define idl_import_binary_height 16
static char idl_import_binary_bits[] = {
  0x8e, 0x38, 0xdb, 0x6d, 0x9b, 0x6c, 0x9b, 0x6d, 0x9b, 0x6c, 0x9b, 0x6d, 
  0x9b, 0x6c, 0x0e, 0x39, 0x20, 0x86, 0x98, 0xcd, 0xa0, 0x8d, 0xb0, 0xcd, 
  0xa0, 0x8d, 0x90, 0xcd, 0xa0, 0x8d, 0x30, 0x47, };
