/* XPM */
static char * image_name[] = {
"16 15 5 1",
" 	s none	m none	c none",
".	s black m black c black",
"X	s white m white	c white",
"o	s red m black c red",
"O	s gray m white	c gray",
"                ",
"   ........     ",
"   .XXXXXX..    ",
"   .XXXXXX.X.   ",
" o OXOOOOO....  ",
" ooOXXXXXXXXX.  ",
"  ooX  oo OOX.  ",
"   ooXooXXXXX.  ",
"   Oooo  OOOX.  ",
"   OoooXXXXXX.  ",
"   oo oo OOOX.  ",
"  ooXXXooXXXX.  ",
"  oOXXXXooXXX.  ",
"   O..........  ",
"                "};
