/* XPM */
static char *magick[] = {
/* columns rows colors chars-per-pixel */
"16 16 8 1",
"  c #321e53",
". c #213229",
"X c #ff6b30",
"o c #ab7138",
"O c #fcad17",
"+ c #fbfefb",
"@ c #d6ded6",
"# c #94b594",
/* pixels */
"++++++++++++++++",
"++++++++++++++++",
"++XXXXXXXXXXXXX@",
"++@XXXXoXXXoXX++",
"+++@XXXXXXXXX@@+",
"++ o .X . XX   +",
"++ +  X XX X +++",
"++   XX.XX X   +",
"++ + OO OO O +++",
"++ + oo   o+ +++",
"+++++@o.o.++++++",
"+++++++..+++++++",
"+++++++.#+++++++",
"+++++++@++++++++",
"++++++++++++++++",
"++++++++++++++++"
};
