#define idl_open_width 16
#define idl_open_height 15
static char idl_open_bits[] = {
  0x00, 0x1c, 0xaa, 0xa2, 0x00, 0xc9, 0x5d, 0xe4, 0xe2, 0x2f, 0x02, 0x08, 
  0x02, 0xa8, 0xc2, 0xff, 0x62, 0xd5, 0x52, 0x6d, 0xda, 0x2a, 0xae, 0x5a, 
  0xfe, 0x0f, 0x01, 0x40, 0x54, 0x15, };
