#define idl_prj_addfiles_width 16
#define idl_prj_addfiles_height 16
static char idl_prj_addfiles_bits[] = {
  0xea, 0xaf, 0xfd, 0xdd, 0xfa, 0xa3, 0x5d, 0x75, 0xfe, 0xa8, 0x03, 0xfd, 
  0x02, 0xaa, 0x23, 0x7e, 0x22, 0xaa, 0xfb, 0xfe, 0xa2, 0xba, 0x23, 0x7e, 
  0x02, 0xae, 0x03, 0xde, 0xfe, 0xab, 0x55, 0x55, };
