#define IDL6_prompt_width 32
#define IDL6_prompt_height 16
static char IDL6_prompt_bits[] = {
 0x20,0x88,0x00,0x08,0x01,0x1e,0xf4,0x01,0x00,0x3e,0x7c,0x87,0x00,0x76,0x76,
 0x1f,0x81,0xfd,0x94,0x3f,0xc0,0x33,0x5f,0x7e,0xc0,0xd7,0xef,0x19,0xe1,0x4f,
 0xf5,0x17,0x30,0xaf,0xe2,0x07,0xfc,0xe6,0xdf,0x06,0x79,0xf9,0xb9,0x83,0xfc,
 0xad,0x7e,0x01,0xf0,0x32,0xee,0x00,0xc0,0x7e,0x78,0x00,0x01,0x0f,0x70,0x00,
 0x54,0x00,0x15,0x49};
