/* XBM */
#define Icon_width 16
#define Icon_height 15
#define Icon_x_hot 0
#define Icon_y_hot 0
static unsigned char Icon_bits[] = {
0x00, 0x00, 
0x00, 0x00, 
0x00, 0x10, 
0xc0, 0x09, 
0xc0, 0x05, 
0xc0, 0x02, 
0x00, 0x01, 
0xc0, 0x01, 
0xc0, 0x01, 
0xa0, 0x01, 
0x10, 0x01, 
0x88, 0x01, 
0xc4, 0x00, 
0x00, 0x00, 
0x00, 0x00, 
};
