#define idl_helpvar_width 16
#define idl_helpvar_height 16
static char idl_helpvar_bits[] = {
  0x00, 0x00, 0x55, 0x7f, 0x86, 0x39, 0xde, 0x72, 0xde, 0x71, 0x3e, 0x79, 
  0x7e, 0x19, 0xfe, 0x4c, 0xfe, 0x0f, 0x3e, 0x4e, 0xbe, 0x20, 0x72, 0x0e, 
  0x74, 0xaf, 0xe1, 0x00, 0xf4, 0x2a, 0x01, 0x40, };
