/* XBM */
#define Icon_width 16
#define Icon_height 15
#define Icon_x_hot 0
#define Icon_y_hot 0
static unsigned char Icon_bits[] = {
0x00, 0x00, 
0x00, 0x00, 
0x00, 0x00, 
0xc0, 0x01, 
0xc0, 0x01, 
0xc0, 0x01, 
0x00, 0x00, 
0xc0, 0x01, 
0xc0, 0x01, 
0xc0, 0x01, 
0x00, 0x01, 
0x80, 0x01, 
0xc0, 0x00, 
0x00, 0x00, 
0x00, 0x00, 
};
