#define idl_reset_width 16
#define idl_reset_height 15
static char idl_reset_bits[] = {
  0x00, 0x00, 0xfa, 0x57, 0x08, 0x0c, 0x1a, 0x54, 0xbc, 0x3e, 0x1a, 0x60, 
  0x4a, 0x25, 0x0a, 0x20, 0x02, 0xa5, 0x6e, 0x20, 0x36, 0xa5, 0x1c, 0x20, 
  0x28, 0x20, 0xad, 0x7f, 0x46, 0x00, };
