/* XPM */
static char * image_name[] = {
"16 15 4 1",
" 	s none	m none	c none",
".	s black m black c black",
"X	s white m white	c white",
"o	s green m black c green",
"     .........  ",
"    .XXXXXXXX.  ",
"    .X.....X.   ",
"   .XXXXXXXX.   ",
"   .X.....X.... ",
"  .XXXXXXXX. . .",
" .......... . ..",
".          . . .",
".............  .",
".           . . ",
".       ooo ... ",
"............. . ",
" .         . .  ",
"  ...........   ",
"                "};
