#define idl_prj_prop_width 16
#define idl_prj_prop_height 16
static char idl_prj_prop_bits[] = {
  0xaa, 0xaa, 0xfd, 0xdf, 0xae, 0xba, 0xfd, 0x5f, 0x06, 0xb8, 0x45, 0x53, 
  0x26, 0xb8, 0x15, 0x53, 0x06, 0xb8, 0xf5, 0xd3, 0x06, 0xb8, 0xf5, 0x53, 
  0x06, 0xb8, 0xfd, 0x5f, 0xaa, 0xaa, 0x55, 0x55, };
