#define idl_liststk_width 16
#define idl_liststk_height 15
static char idl_liststk_bits[] = {
  0xfc, 0xff, 0xfd, 0xff, 0x04, 0x80, 0x7e, 0x80, 0xff, 0x80, 0xfe, 0x84, 
  0x7e, 0x06, 0x81, 0xff, 0xfe, 0x06, 0x81, 0x84, 0xfe, 0x80, 0x81, 0xff, 
  0xfe, 0x00, 0x81, 0x54, 0x7e, 0x01, };
