#define idl_undo_width 16
#define idl_undo_height 15
static char idl_undo_bits[] = {
  0x00, 0x00, 0x80, 0x07, 0x60, 0x18, 0x12, 0x20, 0x0e, 0x40, 0x0e, 0x40, 
  0x1e, 0x40, 0x00, 0x40, 0x00, 0x20, 0x00, 0x18, 0x00, 0x00, 0xfe, 0x55, 
  0xfe, 0x55, 0x00, 0x00, 0x00, 0x00, };
