#define idl_redo_width 16
#define idl_redo_height 15
static char idl_redo_bits[] = {
  0x00, 0x00, 0xe0, 0x01, 0x18, 0x06, 0x04, 0x48, 0x02, 0x70, 0x02, 0x70, 
  0x02, 0x78, 0x02, 0x00, 0x04, 0x00, 0x18, 0x00, 0x00, 0x00, 0xaa, 0x7f, 
  0xaa, 0x7f, 0x00, 0x00, 0x00, 0x00, };
