/* XPM */
static char * image_name[] = {
"16 15 2 1",
" 	s none	m none	c none",
".	s black m black c black",
"                ",
"     ....       ",
"   ..    ..     ",
"  .        .  . ",
" .          ... ",
" .          ... ",
" .         .... ",
" .              ",
"  .             ",
"   ..           ",
"                ",
" . . . ........ ",
" . . . ........ ",
"                ",
"                "};
