/* XPM */
static char * image_name[] = {
"16 15 6 1",
" 	s none	m none	c none",
".	s black m black c black",
"X	s gray m white	c gray",
"o	s white m white	c white",
"O	s black m black c black",
"+	s blue m black c blue",
"  ..............",
"  ..............",
"  XooooooooooooO",
" OOOOOOooooooooO",
"O++++++OoooooooO",
"X++++++Ooo+ooooO",
" OOOOOOXo++ooooX",
"X     XO+++++++X",
" OOOOOOXo++ooooX",
"X     XOoo+ooooO",
" OOOOOOXoooooooO",
"X     XOOOOOOOOO",
" OOOOOOX        ",
"X     XO        ",
" OOOOOO         "};
