#define idl_print_width 16
#define idl_print_height 15
static char idl_print_bits[] = {
  0xe0, 0x3f, 0x15, 0x60, 0xd0, 0x17, 0x0a, 0x50, 0xe8, 0x7b, 0x05, 0xa8, 
  0xfe, 0xd7, 0x01, 0xa8, 0xff, 0x9f, 0x01, 0x50, 0x55, 0x7b, 0xff, 0x5f, 
  0x02, 0x28, 0xfc, 0x5f, 0x02, 0x00, };
