/* XPM */
static char * image_name[] = {
"16 15 6 1",
" 	s none	m none	c none",
".	s gray m white	c gray",
"X	s black m black c black",
"o	s blue m black c blue",
"O	s white m white	c white",
"+	s red m black c red",
"                ",
"   ..XXXXXX     ",
"   oOOOOOOXX    ",
"   ooOOOOOXOX   ",
"  oooo ...XXXX  ",
" o ooOOOOOOOOX  ",
" o oO.......OX  ",
" o .OOOOOOOOOX  ",
" o .O   ....OX  ",
" o+.O++OOOOOOX  ",
" o++++  ....OX  ",
"  o++OOOOOOOOX  ",
"   +++OOOOOOOX  ",
"  ++.++.XXXXXX  ",
" ++   +         "};
