#define idl_cut_width 16
#define idl_cut_height 15
static char idl_cut_bits[] = {
  0x20, 0x02, 0x20, 0x02, 0x20, 0x02, 0x60, 0x03, 0x40, 0x01, 0xc0, 0x01, 
  0x80, 0x00, 0x80, 0x00, 0x00, 0x00, 0x00, 0x00, 0x00, 0x00, 0x00, 0x00, 
  0x00, 0x00, 0x00, 0x00, 0x00, 0x00, };
