#define idl_upstk_width 16
#define idl_upstk_height 15
static char idl_upstk_bits[] = {
  0xff, 0xff, 0xff, 0xff, 0x07, 0x80, 0x7f, 0x88, 0xff, 0x9c, 0xfe, 0xbe, 
  0x7f, 0x7f, 0xbe, 0x88, 0xff, 0x08, 0xbe, 0x88, 0xff, 0x88, 0xbe, 0xff, 
  0xff, 0xff, 0xbe, 0xff, 0xff, 0xff, };
