#define idl_compile_width 16
#define idl_compile_height 15
static char idl_compile_bits[] = {
  0x00, 0x00, 0x55, 0x55, 0x00, 0x00, 0xa9, 0x54, 0x04, 0x00, 0x61, 0x60, 
  0x1c, 0x38, 0x06, 0x64, 0x9a, 0x99, 0x66, 0x66, 0x9a, 0x19, 0x66, 0x46, 
  0x98, 0x09, 0x65, 0x52, 0x10, 0x00, };
