#define idl_stepinto_width 16
#define idl_stepinto_height 15
static char idl_stepinto_bits[] = {
  0x00, 0x00, 0xf8, 0x01, 0x00, 0x02, 0x80, 0x0f, 0x00, 0x07, 0x90, 0x0a, 
  0x48, 0x10, 0x48, 0x15, 0x58, 0x15, 0x48, 0x12, 0x48, 0x15, 0x48, 0x15, 
  0x40, 0x10, 0x80, 0x08, 0x00, 0x00, };
