#define idl_copy_width 16
#define idl_copy_height 15
static char idl_copy_bits[] = {
  0x00, 0x00, 0x7e, 0x55, 0xc2, 0x00, 0x42, 0x55, 0xda, 0x1f, 0x82, 0x70, 
  0xfa, 0x50, 0x82, 0xf6, 0xfa, 0x80, 0x82, 0xbe, 0xfe, 0x80, 0x81, 0xbe, 
  0x94, 0x80, 0xa1, 0xff, 0x04, 0x00, };
