#define idl_import_ascii_width 16
#define idl_import_ascii_height 16
static char idl_import_ascii_bits[] = {
  0x1e, 0x3e, 0x18, 0x44, 0x24, 0x44, 0x24, 0x7c, 0x24, 0x84, 0x7e, 0x84, 
  0x42, 0x84, 0xe7, 0x7e, 0x82, 0x20, 0x04, 0x88, 0x00, 0x82, 0x04, 0x60, 
  0x00, 0x80, 0x84, 0x80, 0x00, 0x8a, 0x77, 0x73, };
