#define idl_prj_options_width 16
#define idl_prj_options_height 16
static char idl_prj_options_bits[] = {
  0xaa, 0xaa, 0xfc, 0x57, 0x02, 0xaa, 0x05, 0x5a, 0x06, 0xae, 0x05, 0x50, 
  0x22, 0xb8, 0x75, 0x53, 0x26, 0xa8, 0x04, 0x50, 0x22, 0xb8, 0x55, 0x53, 
  0x26, 0xa8, 0x05, 0x50, 0xba, 0xbb, 0x55, 0x55, };
