#define idl_tileh_width 16
#define idl_tileh_height 15
static char idl_tileh_bits[] = {
  0xff, 0xff, 0xff, 0xff, 0x03, 0xc0, 0xff, 0xff, 0x03, 0xc0, 0x03, 0xc0, 
  0x03, 0xc0, 0xff, 0xff, 0x03, 0xc0, 0xff, 0xff, 0x03, 0xc0, 0x03, 0xc0, 
  0x03, 0xc0, 0xff, 0xff, 0xff, 0xff, };
