#define idl_break_width 16
#define idl_break_height 15
static char idl_break_bits[] = {
  0x00, 0x00, 0xfa, 0x57, 0x08, 0x0c, 0x0a, 0x54, 0x4a, 0x3d, 0x06, 0x60, 
  0x8c, 0x25, 0xd1, 0x20, 0x5c, 0xaa, 0x61, 0x20, 0x5c, 0xaa, 0x89, 0x21, 
  0x04, 0x21, 0xf9, 0x7f, 0x04, 0x00, };
