#define idl_cascade_width 16
#define idl_cascade_height 15
static char idl_cascade_bits[] = {
  0xff, 0xff, 0x03, 0xf8, 0xff, 0xff, 0x03, 0xf8, 0x03, 0xe0, 0x03, 0xe0, 
  0xff, 0xff, 0x0f, 0xe0, 0x0f, 0x80, 0x0f, 0x80, 0xff, 0xff, 0x3f, 0x80, 
  0x3f, 0x80, 0x3f, 0x80, 0xff, 0xff, };
