#define idl_stepover_width 16
#define idl_stepover_height 15
static char idl_stepover_bits[] = {
  0x00, 0x00, 0xf5, 0x5f, 0x08, 0x50, 0xa5, 0x6a, 0x08, 0x70, 0xb2, 0x0a, 
  0x48, 0x50, 0x5a, 0x15, 0x58, 0x55, 0xca, 0x12, 0x68, 0x55, 0x4a, 0x15, 
  0x48, 0x52, 0xa2, 0x18, 0x08, 0x45, };
