/* XPM */
static char * image_name[] = {
"16 15 5 1",
" 	s none	m none	c none",
".	s black m black c black",
"X	s white m white	c white",
"o	s blue m black c blue",
"O	s gray m white	c gray",
"                ",
"   ........     ",
"   .XXXXXX..    ",
"   .XXXXXX.X.   ",
"   .Xo OOO....  ",
"   .XoXXXXXXX.  ",
"   .Xo OOOOOX.  ",
"   .XoXXXXXXX.  ",
"   XXo  OOOOX.  ",
"   oooooXXXXX.  ",
"   Xooo OOOOX.  ",
"   .XoXXXXXXX.  ",
"   .XXXXXXXXX.  ",
"   ...........  ",
"                "};
