#define idl_listbkpt_width 16
#define idl_listbkpt_height 15
static char idl_listbkpt_bits[] = {
  0xf4, 0xff, 0xee, 0xff, 0x1f, 0x80, 0x15, 0x80, 0x7f, 0x80, 0xee, 0x80, 
  0xbc, 0x80, 0xed, 0x83, 0xf4, 0x85, 0x44, 0x87, 0xc6, 0x9e, 0xfc, 0xfb, 
  0x02, 0x2e, 0xa8, 0x76, 0x02, 0x1c, };
