#define idl_prj_compile_width 16
#define idl_prj_compile_height 16
static char idl_prj_compile_bits[] = {
  0xaa, 0xaa, 0xfd, 0x57, 0x02, 0xaa, 0xd5, 0x55, 0xee, 0xab, 0x15, 0x54, 
  0xba, 0xbe, 0x4d, 0x59, 0xbe, 0xae, 0x15, 0x54, 0xea, 0xbb, 0xd5, 0x55, 
  0x06, 0xa8, 0x05, 0xf0, 0xba, 0xbb, 0x55, 0x55, };
