#define idl_tilev_width 16
#define idl_tilev_height 15
static char idl_tilev_bits[] = {
  0xff, 0xff, 0xff, 0xff, 0x03, 0xc0, 0xff, 0xff, 0x03, 0xc0, 0x03, 0xc0, 
  0x03, 0xc0, 0x03, 0xc0, 0x03, 0xc0, 0x03, 0xc0, 0x03, 0xc0, 0x03, 0xc0, 
  0x03, 0xc0, 0xff, 0xff, 0xff, 0xff, };
