#define idl_run_width 16
#define idl_run_height 15
static char idl_run_bits[] = {
  0x00, 0x00, 0x55, 0x55, 0x80, 0x00, 0xa9, 0x56, 0x84, 0x19, 0xe1, 0x60, 
  0x9c, 0x98, 0xe6, 0x67, 0xda, 0x39, 0xa6, 0x66, 0x1a, 0x19, 0x66, 0x46, 
  0x98, 0x09, 0x65, 0x52, 0x10, 0x00, };
