/* XPM */
static char *magick[] = {
/* columns rows colors chars-per-pixel */
"16 16 8 1",
"  c Gray0",
". c Red",
"X c #bdbdb5",
"o c #bdbdc6",
"O c #b5c6bd",
"+ c #b5c6c6",
"@ c #c6bdbd",
"# c #c0c0c0",
/* pixels */
"#    ####     ##",
"###  ##### ### #",
"## ## #### ### #",
"## ## ####     #",
"## ## #### #### ",
"#      ### #### ",
"# #### ### #### ",
"   ##   o      @",
"...o#X...o##...#",
"O@.#@.##o.#.#o#.",
"o#.o#####.oo@@#.",
"X#.o@o@o#.##o..+",
"##.#Xo#o.@#@O##.",
"##.#o##.#######.",
"#o.###.#o.o.oo#.",
"..........##...#"
};
