/* XPM */
static char * image_name[] = {
"16 16 5 1",
" 	s none	m none	c none",
".	s gray m white	c gray",
"X	s black m black c black",
"o	s white m white	c white",
"O	s green m black c green",
"                ",
" .XXXXXXXXXXXX. ",
" X............X ",
" X.          .X ",
" X.          .X ",
" X.   o o    .X ",
" X.    o     .X ",
" X.          .X ",
" X.          .X ",
" X.          .X ",
" X.........OO.X ",
" .XXXXXXXXXXXX. ",
"      XXXXX     ",
"      XXXXX     ",
"    XXXXXXXXX   ",
"                "};
