#define image_width 16
#define image_height 16
static char image_bits[] = {
 0xaa,0xaa,0x55,0x55,0xaa,0xaa,0xd5,0x57,0xfa,0xaf,0xda,0x76,0x66,0xaf,0xc7,
 0x4b,0xe2,0xcf,0x45,0x67,0x9d,0xb1,0x75,0x5c,0xd5,0xa7,0xaa,0x5a,0xaa,0xaa,
 0x55,0x55};
