#define idl_new_width 16
#define idl_new_height 15
static char idl_new_bits[] = {
  0x00, 0x00, 0xfa, 0x57, 0x08, 0x0c, 0x0a, 0x54, 0x48, 0x3d, 0x0a, 0x60, 
  0xa8, 0x2a, 0x0a, 0x20, 0x48, 0xa5, 0x0a, 0x20, 0xa8, 0xaa, 0x0a, 0x20, 
  0x08, 0x20, 0xfa, 0x7f, 0x08, 0x00, };
