#define idl_save_width 16
#define idl_save_height 15
static char idl_save_bits[] = {
  0xfe, 0x7f, 0x0e, 0x50, 0x0a, 0x70, 0x2e, 0x72, 0x0a, 0x51, 0x0e, 0x70, 
  0x4a, 0x54, 0xfe, 0x7f, 0xaa, 0x4a, 0xf6, 0x7f, 0xf6, 0x53, 0xfa, 0x77, 
  0xf6, 0x53, 0xfc, 0x7f, 0x02, 0x80, };
