#define idl_import_hdf_width 16
#define idl_import_hdf_height 16
static char idl_import_hdf_bits[] = {
  0x00, 0x00, 0x00, 0x00, 0xa8, 0xaa, 0x50, 0x15, 0xa8, 0x0a, 0xfc, 0x77, 
  0xb4, 0x1e, 0xdc, 0x75, 0xb4, 0x1e, 0xd4, 0x17, 0xa0, 0x02, 0x80, 0x01, 
  0x80, 0x00, 0x00, 0x00, 0x00, 0x00, 0x00, 0x00, };
