#define idl_search_width 16
#define idl_search_height 15
static char idl_search_bits[] = {
  0x00, 0x00, 0xfa, 0x57, 0x08, 0x0c, 0x0a, 0x54, 0x48, 0x3d, 0x3d, 0x60, 
  0xc2, 0x2a, 0x81, 0x20, 0xb9, 0xaa, 0xf9, 0x20, 0x81, 0xa5, 0x42, 0x20, 
  0xbc, 0x21, 0xd2, 0x7f, 0x08, 0x03, };
