#define idl_funcmenu_width 14
#define idl_funcmenu_height 12
static char idl_funcmenu_bits[] = {
  0x00, 0x00, 0x48, 0x00, 0x84, 0x00, 0x02, 0x01, 0x02, 0x01, 0x02, 0x01, 
  0x02, 0x01, 0x02, 0x01, 0x02, 0x01, 0x84, 0x3e, 0x48, 0x1c, 0x00, 0x08, 
  };
