#define idl_stepout_width 16
#define idl_stepout_height 15
static char idl_stepout_bits[] = {
  0x00, 0x00, 0x00, 0x20, 0x00, 0x60, 0x00, 0xfe, 0x00, 0x61, 0x48, 0x25, 
  0x24, 0x08, 0xa4, 0x0a, 0xac, 0x0a, 0x24, 0x09, 0xa4, 0x0a, 0xa4, 0x0a, 
  0x20, 0x08, 0x40, 0x04, 0x00, 0x00, };
