#define idl_setcbkpt_width 16
#define idl_setcbkpt_height 15
static char idl_setcbkpt_bits[] = {
  0x00, 0x00, 0xfa, 0x57, 0x08, 0x0c, 0x0a, 0x54, 0x48, 0x3d, 0x0a, 0x60, 
  0xac, 0x2a, 0x22, 0x20, 0x22, 0xa5, 0x22, 0x20, 0x9c, 0xaa, 0x01, 0x20, 
  0x0c, 0x20, 0xf8, 0x7f, 0x02, 0x00, };
