#define idl_paste_width 16
#define idl_paste_height 15
static char idl_paste_bits[] = {
  0xe0, 0x01, 0x3e, 0x5f, 0xdb, 0x36, 0x0d, 0x6c, 0xfb, 0x37, 0xab, 0x2a, 
  0xd5, 0xbf, 0x6b, 0x30, 0x55, 0x50, 0x6b, 0x77, 0x55, 0x40, 0x6d, 0x5f, 
  0x7e, 0x40, 0xc1, 0x7f, 0x14, 0x80, };
