#define idl_downstk_width 16
#define idl_downstk_height 15
static char idl_downstk_bits[] = {
  0xff, 0xff, 0xff, 0xff, 0x07, 0x88, 0x7f, 0x88, 0xff, 0x88, 0xfe, 0x88, 
  0x7f, 0x7f, 0xbe, 0xbe, 0xff, 0x0c, 0xbe, 0x88, 0xff, 0x80, 0xbe, 0xff, 
  0xff, 0xff, 0xbe, 0xff, 0xff, 0xff, };
