/* XPM */
static char * image_name[] = {
"16 15 6 1",
" 	s none	m none	c none",
".	s gray m white	c gray",
"X	s black m black c black",
"o	s black m black c black",
"O	s red m black c red",
"+	s white m white	c white",
"  ..XXXXXXXXXXXX",
" ooo.XXXXXXXXXXX",
"oOOOo++++++++++o",
"oOOOo++++++++++o",
"oOOOooo++++++++o",
" oooOOOo+++++++o",
"  ooOOOo+++++++o",
"  ooOOOooo+++++o",
"  o+oooOOOo++++o",
"  o+++oOOOo++++o",
"  o+++oOOOooo++o",
"  ooooooooOOOooo",
"         oOOOo  ",
"         oOOOo  ",
"          ooo   "};
