#define idl_prj_build_width 16
#define idl_prj_build_height 16
static char idl_prj_build_bits[] = {
  0xaa, 0xea, 0xf5, 0x57, 0x5a, 0xfb, 0x8d, 0x6e, 0x06, 0xbf, 0x83, 0x7b, 
  0x81, 0xaf, 0x81, 0xc7, 0xc2, 0xfe, 0x05, 0xf0, 0x0a, 0xe8, 0x15, 0x60, 
  0x2a, 0xb0, 0x55, 0x58, 0xaa, 0xa8, 0x55, 0x57, };
