#define printvar_width 16
#define printvar_height 16
static char printvar_bits[] = {
  0x00, 0x00, 0xfe, 0x7f, 0xaa, 0x6a, 0x06, 0x40, 0xaa, 0x6a, 0x06, 0x40, 
  0x4a, 0x6a, 0x16, 0x50, 0x42, 0x61, 0x26, 0x54, 0xda, 0x6a, 0xfe, 0x7f, 
  0xc0, 0x07, 0xd4, 0x4f, 0xf2, 0x1f, 0x00, 0x40, };
